# xmcd CD database file
#
# Track frame offsets:
#	150
#	47607
#	92547
#	134730
#
# Disc length: 2225 seconds
#
# Revision: 0
# Processed by: cddbd v1.5.1PL0 Copyright (c) Steve Scherf et al.
# Submitted via: CDex 1.51
#
DISCID=2f08af04
DTITLE=Third Ear Band - Third Ear Band
DYEAR=1970
DGENRE=New Age
TTITLE0=Air
TTITLE1=Earth
TTITLE2=Fire
TTITLE3=Water
EXTD=YEAR: 1970
EXTT0=
EXTT1=
EXTT2=
EXTT3=
PLAYORDER=
